<?xml version="1.0" encoding="utf-8"?>
<!-- Generator: Adobe Illustrator 24.1.0, SVG Export Plug-In . SVG Version: 6.00 Build 0)  -->
<svg version="1.1" id="Layer_1" xmlns="http://www.w3.org/2000/svg" xmlns:xlink="http://www.w3.org/1999/xlink" x="0px" y="0px"
	 viewBox="0 0 496.2 496.2" style="enable-background:new 0 0 496.2 496.2;" xml:space="preserve">
<style type="text/css">
	.st0{fill:#D29F13;}
</style>
<path class="st0" d="M248.1,0C111.1,0,0,111.1,0,248.1s111.1,248.1,248.1,248.1s248.1-111.1,248.1-248.1S385.1,0,248.1,0z
	 M370.8,262.1l-175,106.6c-2.5,1.5-5.3,2.3-8.2,2.3c-2.7,0-5.4-0.7-7.7-2c-5-2.8-8-8.1-8-13.8v-214c0-5.7,3.1-11,8.1-13.8
	c4.9-2.7,11.2-2.6,16,0.3l174.9,107.4c4.7,2.9,7.5,8,7.5,13.5C378.3,254.2,375.4,259.3,370.8,262.1z"/>
</svg>
